<mxfile host="app.diagrams.net" agent="Mozilla/5.0 (Windows NT 10.0; Win64; x64) AppleWebKit/537.36 (KHTML, like Gecko) Chrome/138.0.0.0 Safari/537.36" version="28.0.7">
  <diagram name="Page-1" id="6H3OI9RgsqvEJDkXQB_U">
    <mxGraphModel dx="357" dy="332" grid="1" gridSize="10" guides="1" tooltips="1" connect="1" arrows="1" fold="1" page="1" pageScale="1" pageWidth="1169" pageHeight="827" math="1" shadow="0">
      <root>
        <mxCell id="0" />
        <mxCell id="1" parent="0" />
        <mxCell id="1m1qsPZ2QAxzQoj1FBpP-7" value="" style="rounded=0;orthogonalLoop=1;jettySize=auto;html=1;endArrow=none;endFill=0;fontFamily=Times New Roman;" edge="1" parent="1" source="1m1qsPZ2QAxzQoj1FBpP-1" target="1m1qsPZ2QAxzQoj1FBpP-4">
          <mxGeometry relative="1" as="geometry" />
        </mxCell>
        <mxCell id="1m1qsPZ2QAxzQoj1FBpP-12" style="edgeStyle=none;shape=connector;rounded=0;orthogonalLoop=1;jettySize=auto;html=1;entryX=0;entryY=0.5;entryDx=0;entryDy=0;strokeColor=default;align=center;verticalAlign=middle;fontFamily=Times New Roman;fontSize=11;fontColor=default;labelBackgroundColor=default;endArrow=none;endFill=0;" edge="1" parent="1" source="1m1qsPZ2QAxzQoj1FBpP-1" target="1m1qsPZ2QAxzQoj1FBpP-6">
          <mxGeometry relative="1" as="geometry" />
        </mxCell>
        <mxCell id="1m1qsPZ2QAxzQoj1FBpP-1" value="$$x_{11}$$" style="ellipse;whiteSpace=wrap;html=1;aspect=fixed;fontFamily=Times New Roman;" vertex="1" parent="1">
          <mxGeometry x="380" y="140" width="40" height="40" as="geometry" />
        </mxCell>
        <mxCell id="1m1qsPZ2QAxzQoj1FBpP-8" value="" style="edgeStyle=orthogonalEdgeStyle;shape=connector;rounded=0;orthogonalLoop=1;jettySize=auto;html=1;strokeColor=default;align=center;verticalAlign=middle;fontFamily=Times New Roman;fontSize=11;fontColor=default;labelBackgroundColor=default;endArrow=none;endFill=0;" edge="1" parent="1" source="1m1qsPZ2QAxzQoj1FBpP-2" target="1m1qsPZ2QAxzQoj1FBpP-5">
          <mxGeometry relative="1" as="geometry" />
        </mxCell>
        <mxCell id="1m1qsPZ2QAxzQoj1FBpP-13" style="edgeStyle=none;shape=connector;rounded=0;orthogonalLoop=1;jettySize=auto;html=1;entryX=0;entryY=0.5;entryDx=0;entryDy=0;strokeColor=default;align=center;verticalAlign=middle;fontFamily=Times New Roman;fontSize=11;fontColor=default;labelBackgroundColor=default;endArrow=none;endFill=0;" edge="1" parent="1" source="1m1qsPZ2QAxzQoj1FBpP-2" target="1m1qsPZ2QAxzQoj1FBpP-6">
          <mxGeometry relative="1" as="geometry" />
        </mxCell>
        <mxCell id="1m1qsPZ2QAxzQoj1FBpP-2" value="$$x_{21}$$" style="ellipse;whiteSpace=wrap;html=1;aspect=fixed;fontFamily=Times New Roman;" vertex="1" parent="1">
          <mxGeometry x="380" y="200" width="40" height="40" as="geometry" />
        </mxCell>
        <mxCell id="1m1qsPZ2QAxzQoj1FBpP-11" value="" style="edgeStyle=orthogonalEdgeStyle;shape=connector;rounded=0;orthogonalLoop=1;jettySize=auto;html=1;strokeColor=default;align=center;verticalAlign=middle;fontFamily=Times New Roman;fontSize=11;fontColor=default;labelBackgroundColor=default;endArrow=none;endFill=0;" edge="1" parent="1" source="1m1qsPZ2QAxzQoj1FBpP-3" target="1m1qsPZ2QAxzQoj1FBpP-6">
          <mxGeometry relative="1" as="geometry" />
        </mxCell>
        <mxCell id="1m1qsPZ2QAxzQoj1FBpP-3" value="$$y_{1}$$" style="ellipse;whiteSpace=wrap;html=1;aspect=fixed;fontFamily=Times New Roman;" vertex="1" parent="1">
          <mxGeometry x="380" y="260" width="40" height="40" as="geometry" />
        </mxCell>
        <mxCell id="1m1qsPZ2QAxzQoj1FBpP-4" value="$$\text{itemPacked}_1$$" style="ellipse;whiteSpace=wrap;html=1;fontFamily=Times New Roman;" vertex="1" parent="1">
          <mxGeometry x="490" y="140" width="120" height="40" as="geometry" />
        </mxCell>
        <mxCell id="1m1qsPZ2QAxzQoj1FBpP-5" value="$$\text{itemPacked}_2$$" style="ellipse;whiteSpace=wrap;html=1;fontFamily=Times New Roman;" vertex="1" parent="1">
          <mxGeometry x="490" y="200" width="120" height="40" as="geometry" />
        </mxCell>
        <mxCell id="1m1qsPZ2QAxzQoj1FBpP-6" value="$$\text{binCapacity}_1$$" style="ellipse;whiteSpace=wrap;html=1;fontFamily=Times New Roman;" vertex="1" parent="1">
          <mxGeometry x="490" y="260" width="120" height="40" as="geometry" />
        </mxCell>
      </root>
    </mxGraphModel>
  </diagram>
</mxfile>
